<svg xmlns="http://www.w3.org/2000/svg" viewBox="0 0 400 300" fill="none">
  <defs>
    <linearGradient id="bg" x1="0" y1="0" x2="400" y2="300"><stop stop-color="#1c2e1a"/><stop offset="1" stop-color="#0e180d"/></linearGradient>
    <linearGradient id="g" x1="0" y1="0" x2="1" y2="0"><stop stop-color="#7cb342"/><stop offset=".5" stop-color="#c8e06a"/><stop offset="1" stop-color="#5a8f2a"/></linearGradient>
  </defs>
  <rect width="400" height="300" fill="url(#bg)"/>
  <ellipse cx="200" cy="250" rx="100" ry="14" fill="#000" opacity=".25"/>
  <ellipse cx="200" cy="155" rx="130" ry="55" fill="url(#g)"/>
  <g stroke="#2a4a18" stroke-width="3" opacity=".7">
    <line x1="100" y1="130" x2="100" y2="180"/><line x1="120" y1="125" x2="120" y2="185"/>
    <line x1="140" y1="122" x2="140" y2="188"/><line x1="160" y1="120" x2="160" y2="190"/>
    <line x1="180" y1="118" x2="180" y2="192"/><line x1="200" y1="118" x2="200" y2="192"/>
    <line x1="220" y1="120" x2="220" y2="190"/><line x1="240" y1="122" x2="240" y2="188"/>
    <line x1="260" y1="125" x2="260" y2="185"/><line x1="280" y1="130" x2="280" y2="180"/>
  </g>
  <rect x="290" y="80" width="8" height="90" rx="4" transform="rotate(35 290 80)" fill="#d4b896"/>
</svg>
